Jump_normalized_Motion_pl12
version=1
nRows=21
nColumns=43
inDegrees=yes
endheader
time		pelvis_tilt		pelvis_list		pelvis_rotation		pelvis_tx		pelvis_ty		pelvis_tz		hip_flexion_r		hip_adduction_r		hip_rotation_r		knee_angle_r		ankle_angle_r		subtalar_angle_r		mtp_angle_r		hip_flexion_l		hip_adduction_l		hip_rotation_l		knee_angle_l		ankle_angle_l		subtalar_angle_l		mtp_angle_l		lumbar_extension		lumbar_bending		lumbar_rotation		neck_flexion		neck_lateral_bending		neck_rotation		arm_flex_r		arm_add_r		arm_rot_r		elbow_flex_r		pro_sup_r		wrist_flex_r		wrist_dev_r		hand_finger_flex_r		arm_flex_l		arm_add_l		arm_rot_l		elbow_flex_l		pro_sup_l		wrist_flex_l		wrist_dev_l		hand_finger_flex_l		
0.095833		3.141703		-17.340586		81.960590		0.066228		1.769545		1.639204		61.477368		3.300373		5.245727		-140.704324		15.283505		6.758398		34.416153		70.521640		-10.825697		11.103417		-139.956634		-16.965386		18.046332		25.579782		-29.401435		1.178149		8.859236		21.986981		-0.240828		-0.768331		68.204200		-26.175318		8.264574		90.860978		118.491430		4.538950		-3.070762		-2.229206		72.009005		-22.520158		12.677345		64.112156		122.931296		-7.042468		3.756032		-12.583913		
0.097247		3.110402		-17.359327		81.877924		0.066233		1.769907		1.636359		61.150840		3.373700		5.310241		-140.508137		15.038822		6.451097		34.645836		70.518432		-10.841564		10.833712		-139.603282		-18.063257		17.135190		24.593397		-29.231356		1.142897		8.928644		21.879212		-0.254101		-0.793042		68.515303		-26.032883		8.352873		90.621425		119.177202		4.594414		-3.336072		-1.921038		72.144775		-22.416361		12.640289		64.105453		122.982504		-6.729878		3.721769		-13.023147		
0.098662		3.071347		-17.394012		81.815360		0.066135		1.770088		1.633547		60.862579		3.399835		5.411664		-140.336643		14.794448		6.357490		34.692046		70.528262		-10.819350		10.703512		-139.253412		-19.021412		16.973454		24.209960		-29.011183		1.111243		9.006729		21.552307		-0.207041		-0.842321		68.874837		-26.045688		8.585808		90.357087		119.441451		4.718043		-3.367690		-1.779711		72.297673		-22.269028		12.688484		64.054461		122.998102		-6.596095		3.770119		-13.148346		
0.100076		3.029479		-17.430156		81.756298		0.066020		1.770240		1.630738		60.580110		3.416712		5.520069		-140.169295		14.548962		6.296296		34.708017		70.539637		-10.789841		10.595700		-138.900766		-19.959500		16.935852		23.936242		-28.784343		1.078617		9.084301		21.192599		-0.150702		-0.894959		69.240862		-26.080691		8.839306		90.086864		119.645640		4.851951		-3.367941		-1.659437		72.453183		-22.117563		12.753919		63.998035		123.004915		-6.493923		3.832002		-13.223901		
0.101490		2.967688		-17.430821		81.681895		0.066007		1.770598		1.627869		60.253005		3.451284		5.610072		-139.980343		14.282640		5.987024		34.894396		70.528216		-10.777696		10.347644		-138.485732		-21.079667		16.213148		23.285202		-28.632135		1.015016		9.119475		21.094968		-0.162144		-0.912598		69.535575		-25.911667		8.900593		89.807880		120.407668		4.905680		-3.711544		-1.270346		72.589022		-22.060279		12.796522		64.015701		122.993307		-6.263460		3.815676		-13.628482		
0.102904		2.909167		-17.439916		81.614507		0.065956		1.770893		1.625000		59.939745		3.475940		5.707684		-139.796989		14.013219		5.755422		35.027537		70.523381		-10.757112		10.143177		-138.077042		-22.112297		15.714548		22.765992		-28.460276		0.960129		9.163732		20.921987		-0.156508		-0.942051		69.842506		-25.807354		9.021662		89.534886		121.004773		4.982351		-3.957160		-0.954096		72.724453		-21.983959		12.853831		64.015684		122.986130		-6.074159		3.820081		-13.933627		
0.104318		2.858818		-17.470090		81.564655		0.065811		1.771031		1.622133		59.661098		3.475805		5.824320		-139.627627		13.736050		5.717999		35.027582		70.535013		-10.715429		10.047682		-137.684210		-22.926081		15.776206		22.576355		-28.239288		0.927028		9.230697		20.560633		-0.108183		-1.001040		70.179980		-25.864823		9.292184		89.276868		121.189569		5.116376		-3.957808		-0.819945		72.858866		-21.860048		12.947905		63.971458		122.990031		-5.987761		3.876314		-13.990179		
0.105732		2.802540		-17.496370		81.514894		0.065681		1.771195		1.619266		59.380799		3.475329		5.940112		-139.454542		13.456175		5.644410		35.030562		70.551199		-10.672343		9.945253		-137.268755		-23.784079		15.799560		22.385138		-28.031578		0.884736		9.284388		20.272162		-0.074360		-1.061217		70.508356		-25.887102		9.532106		89.012507		121.414558		5.229352		-3.987134		-0.672373		72.996188		-21.751048		13.047929		63.930907		122.994237		-5.909473		3.915747		-14.058257		
0.107146		2.740741		-17.519027		81.465219		0.065565		1.771383		1.616399		59.098961		3.474535		6.055116		-139.277990		13.173778		5.537151		35.036275		70.571626		-10.627952		9.836368		-136.832238		-24.683242		15.787252		22.192450		-27.836228		0.833888		9.325723		20.051549		-0.054041		-1.122500		70.828260		-25.876616		9.743539		88.742241		121.676970		5.322731		-4.043159		-0.512306		73.136220		-21.655932		13.153493		63.893777		122.998728		-5.838736		3.939537		-14.137066		
0.108561		2.626057		-17.489587		81.412552		0.065445		1.771709		1.613467		58.764265		3.422510		6.190546		-139.096618		12.846167		5.249198		35.249534		70.513868		-10.563038		9.609010		-136.371568		-25.420159		15.518253		21.914476		-27.701419		0.729324		9.305344		19.891461		-0.030519		-1.135993		71.089077		-25.738443		9.808358		88.441946		122.636385		5.246672		-4.486264		0.275996		73.271153		-21.626007		13.282450		63.899505		122.913255		-5.665666		3.929877		-14.612415		
0.109975		2.493745		-17.442783		81.358889		0.065325		1.772081		1.610515		58.411949		3.353408		6.332784		-138.913639		12.503484		4.901013		35.531975		70.430049		-10.491283		9.342162		-135.902846		-26.102995		15.163690		21.608074		-27.586790		0.606855		9.264395		19.751546		-0.005929		-1.133556		71.330198		-25.557708		9.824307		88.131640		123.828134		5.114134		-5.058395		1.273708		73.404386		-21.617812		13.419204		63.919520		122.797794		-5.458487		3.909067		-15.219945		
0.111389		2.436548		-17.479821		81.344485		0.065125		1.772205		1.607586		58.147252		3.324110		6.438349		-138.735815		12.214025		4.883290		35.525418		70.457654		-10.425160		9.258696		-135.467146		-26.554700		15.327388		21.536918		-27.372520		0.579297		9.297373		19.466111		0.029304		-1.201689		71.598242		-25.639556		10.079735		87.926546		123.952024		5.197765		-5.033267		1.440136		73.503332		-21.510690		13.519246		63.906021		122.809300		-5.387503		3.935064		-15.270255		
0.112803		2.376548		-17.514584		81.334072		0.064916		1.772325		1.604657		57.882514		3.287257		6.545693		-138.558841		11.920267		4.857681		35.512972		70.484932		-10.356836		9.172173		-135.030845		-26.974016		15.502713		21.479805		-27.160797		0.550202		9.324303		19.193369		0.063988		-1.270674		71.864600		-25.717148		10.332595		87.718143		124.070493		5.280130		-4.998581		1.594896		73.605811		-21.400441		13.619397		63.885006		122.824782		-5.322405		3.958675		-15.313015		
0.114217		2.301260		-17.535417		81.335673		0.064677		1.772451		1.601728		57.611785		3.220051		6.662009		-138.384638		11.607202		4.781123		35.498199		70.503588		-10.280064		9.062213		-134.590139		-27.289981		15.686125		21.458500		-26.965053		0.509141		9.324130		18.976870		0.095946		-1.338075		72.122985		-25.761631		10.560075		87.490594		124.240271		5.343442		-4.968665		1.762294		73.723526		-21.285323		13.722394		63.838662		122.846373		-5.269810		3.970414		-15.365241		
0.115631		2.216279		-17.547261		81.340277		0.064432		1.772602		1.598793		57.338005		3.140622		6.774393		-138.210528		11.276270		4.686587		35.483293		70.506855		-10.187281		8.936741		-134.145026		-27.508795		15.884369		21.467993		-26.780599		0.459065		9.315825		18.752069		0.125450		-1.405230		72.368173		-25.807541		10.783407		87.275519		124.436984		5.402075		-4.941113		1.946769		73.840145		-21.173196		13.830052		63.791682		122.871202		-5.218660		3.975150		-15.424078		
0.117045		2.119276		-17.547961		81.348603		0.064180		1.772786		1.595848		57.060442		3.046038		6.881902		-138.036534		10.923183		4.569757		35.468220		70.491041		-10.074644		8.792034		-133.694448		-27.607144		16.101003		21.515677		-26.610145		0.397810		9.297438		18.516972		0.151910		-1.472080		72.596995		-25.855219		11.001598		87.075909		124.667097		5.454906		-4.916492		2.152418		73.955405		-21.064777		13.943490		63.743910		122.900046		-5.169303		3.971204		-15.491115		
0.118460		2.008917		-17.536804		81.363190		0.063904		1.772981		1.592892		56.779935		2.929644		6.990883		-137.863940		10.539233		4.428474		35.453953		70.448937		-9.945023		8.622685		-133.250407		-27.514619		16.346919		21.628276		-26.452210		0.324486		9.264512		18.289718		0.182673		-1.546520		72.818751		-25.894370		11.211587		86.876702		124.941514		5.502131		-4.882724		2.392111		74.079505		-20.944953		14.061884		63.677537		122.932581		-5.116999		3.963759		-15.571114		
0.119874		1.892231		-17.520031		81.380743		0.063617		1.773181		1.589932		56.498033		2.802920		7.100563		-137.692008		10.140662		4.275607		35.440068		70.394380		-9.807357		8.441664		-132.809462		-27.331682		16.606705		21.771625		-26.300206		0.245445		9.224700		18.066179		0.215475		-1.624553		73.037159		-25.929481		11.417692		86.677686		125.236917		5.546700		-4.844623		2.647930		74.207793		-20.819727		14.182627		63.602352		122.966864		-5.063300		3.954657		-15.657254		
0.121288		1.774509		-17.496028		81.411371		0.063318		1.773374		1.586942		56.207009		2.664548		7.208158		-137.516975		9.740972		4.115070		35.427737		70.326221		-9.678288		8.234336		-132.386931		-26.906237		16.868205		21.996766		-26.160587		0.165293		9.181093		17.861974		0.248591		-1.705062		73.219928		-25.968856		11.587792		86.504936		125.549729		5.585136		-4.793135		2.922925		74.329691		-20.691720		14.303058		63.535352		122.999817		-5.004035		3.940478		-15.751096		
0.122702		1.653646		-17.458255		81.440057		0.063043		1.773600		1.583934		55.899166		2.526417		7.317820		-137.338525		9.337282		3.941697		35.473673		70.235704		-9.553126		8.020235		-131.956360		-26.480987		17.142340		22.496608		-26.038489		0.075153		9.143729		17.672316		0.279814		-1.786179		73.379793		-25.995993		11.718091		86.338823		125.985837		5.518531		-4.808540		3.484261		74.460455		-20.559184		14.430023		63.464643		123.027216		-4.885276		3.921190		-15.975450		
0.124116		1.514547		-17.342121		81.449405		0.062912		1.774030		1.580840		55.495782		2.396573		7.441113		-137.141396		8.910249		3.695820		35.868301		70.019042		-9.446350		7.780966		-131.466712		-26.199550		17.491273		24.596547		-26.014238		-0.074260		9.146048		17.558571		0.299491		-1.869487		73.423202		-25.947195		11.630762		86.197081		127.151475		4.825293		-5.233171		5.752364		74.648168		-20.401103		14.596376		63.366864		123.022068		-4.412828		3.874240		-16.978341		
